# xmcd CD database file
#
# Track frame offsets:
#	182
#	23577
#	53945
#	78475
#	95355
#	136207
#	161770
#	193675
#
# Disc length: 2663 seconds
#
# Revision: 0
# Processed by: cddbd v1.5.1PL2 Copyright (c) Steve Scherf et al.
# Submitted via: CDex 1.51
#
DISCID=600a6508
DTITLE=Francois Jeanneau - Taxi way
DYEAR=1983
DGENRE=Jazz
TTITLE0=Taxiway
TTITLE1=Sequence
TTITLE2=Miss Jude
TTITLE3=Calypso facto
TTITLE4=Valse
TTITLE5=Lassitude
TTITLE6=Wysiwyg
TTITLE7=Golf
EXTD=YEAR: 1983
EXTT0=
EXTT1=
EXTT2=
EXTT3=
EXTT4=
EXTT5=
EXTT6=
EXTT7=
PLAYORDER=
